<svg width="435" height="182" viewBox="0 0 435 182" fill="none" xmlns="http://www.w3.org/2000/svg">

<defs>
  <linearGradient id="orange" x1="28" y1="41" x2="427" y2="154">
    <stop offset="0" stop-color="#FFA116"/>
    <stop offset="0.55" stop-color="#F89B18"/>
    <stop offset="1" stop-color="#E88700"/>
  </linearGradient>

  <filter id="shadow" x="-20%" y="-20%" width="140%" height="150%">
    <feDropShadow
      dx="0"
      dy="4"
      stdDeviation="5"
      flood-opacity="0.35"
    />
  </filter>
</defs>

<!-- Background -->
<rect width="435" height="182" fill="#080B0F"/>

<!-- Main pill -->
<rect
  x="28"
  y="41"
  width="399"
  height="113"
  rx="57"
  fill="url(#orange)"
  filter="url(#shadow)"
/>

<!-- Border -->
<rect
  x="28"
  y="41"
  width="399"
  height="113"
  rx="57"
  fill="none"
  stroke="#FFA116"
  stroke-width="4"
/>

<!-- Black icon circle -->
<circle
  cx="101"
  cy="97"
  r="57"
  fill="#090B0F"
/>

<!-- LeetCode-style coding symbol -->
<path
  d="M86 116
     C77 108 75 96 81 87
     C87 78 97 73 108 74
     C117 75 125 80 130 87"
  fill="none"
  stroke="white"
  stroke-width="8"
  stroke-linecap="round"
/>

<path
  d="M83 112
     C91 122 106 126 118 121
     C125 118 130 113 134 107"
  fill="none"
  stroke="white"
  stroke-width="8"
  stroke-linecap="round"
/>

<path
  d="M101 97
     L128 97"
  fill="none"
  stroke="white"
  stroke-width="8"
  stroke-linecap="round"
/>

<!-- Practice text -->
<text
  x="165"
  y="116"
  fill="white"
  font-family="Arial, Helvetica, sans-serif"
  font-size="47"
  font-weight="700"
>
  Practice
</text>

</svg>
